<svg width="154" height="154" viewBox="0 0 154 154" fill="none" xmlns="http://www.w3.org/2000/svg">
<path opacity="0.2" d="M132.25 77C132.25 107.514 107.514 132.25 77 132.25C46.4863 132.25 21.75 107.514 21.75 77C21.75 46.4863 46.4863 21.75 77 21.75C107.514 21.75 132.25 46.4863 132.25 77Z" fill="white" stroke="white" stroke-width="5"/>
<path d="M103.469 62.5625L68.157 96.25L50.5312 79.4062" stroke="white" stroke-width="7" stroke-linecap="round" stroke-linejoin="round"/>
<path d="M77 134.75C108.894 134.75 134.75 108.894 134.75 77C134.75 45.1056 108.894 19.25 77 19.25C45.1056 19.25 19.25 45.1056 19.25 77C19.25 108.894 45.1056 134.75 77 134.75Z" stroke="white" stroke-width="6" stroke-linecap="round" stroke-linejoin="round"/>
</svg>
